<?xml version="1.0" encoding="UTF-8"?><svg xmlns="http://www.w3.org/2000/svg" width="1000" height="1000" viewBox="0 0 1000 1000"><g id="a"><rect x="-3250" y="-750" width="7500" height="3000"/></g><g id="b"><rect x="-3200" y="-700" width="7400" height="2900" style="fill:none;"/><path d="M987.79,1097.75c-1.28,0-2.54-.05-3.76-.14-1.22-.09-2.36-.27-3.42-.52-1.06-.25-2.13-.53-3.23-.84l3.56-11.46c.96.38,2.36.66,4.19.85,1.83.19,3.26.28,4.29.28,4.88,0,8.99-1.39,12.33-4.18,3.34-2.79,5.46-7.03,6.36-12.72l21.96-129.4c1.16-6.57,3.32-12.16,6.5-16.76s7.21-8.11,12.09-10.52c4.88-2.41,10.34-3.62,16.37-3.62,2.25,0,4.35.17,6.31.52,1.96.34,3.9.77,5.83,1.27l-3.95,10.89c-1.09-.25-2.58-.45-4.48-.61-1.89-.16-3.74-.24-5.54-.24-5.2,0-9.57,1.6-13.1,4.79-3.53,3.19-5.84,7.89-6.93,14.09l-21.96,129.59c-1.03,6.2-3.07,11.44-6.12,15.73-3.05,4.29-6.92,7.53-11.6,9.72-4.69,2.19-9.92,3.29-15.7,3.29ZM1066.85,950.13l-1.83,10.61h-60.09l1.83-10.61h60.09Z" style="fill:#262626;"/><circle cx="500" cy="500" r="650" style="fill:none;"/></g><g id="d"><path d="M875,500c0,207.11-167.89,375-375,375S125,707.11,125,500,292.89,125,500,125" style="fill:none; stroke:#fff; stroke-linecap:round; stroke-miterlimit:10; stroke-width:50px;"/><path d="M848.09,429.93h0c-2.17-10.83,4.85-21.37,15.69-23.53h0c10.83-2.17,21.36,4.85,23.53,15.68h0c2.17,10.83-4.85,21.37-15.68,23.54h0c-1.33.26-2.65.39-3.95.39h0c-9.34,0-17.69-6.57-19.59-16.08ZM827.78,363.42c-4.26-10.2.56-21.91,10.75-26.16h0c10.2-4.25,21.91.56,26.16,10.76h0c4.26,10.19-.56,21.9-10.75,26.15h0c-2.52,1.05-5.13,1.55-7.7,1.55h0c-7.82,0-15.26-4.63-18.46-12.3ZM794.81,302.16c-6.16-9.17-3.73-21.59,5.43-27.76h0c9.17-6.16,21.6-3.73,27.76,5.44h0c6.16,9.17,3.73,21.59-5.44,27.76h0c-3.42,2.3-7.3,3.4-11.14,3.4h0c-6.43,0-12.75-3.1-16.61-8.84ZM750.52,248.47c-7.83-7.79-7.86-20.46-.06-28.28h0c7.79-7.83,20.46-7.86,28.28-.06h0c7.83,7.79,7.85,20.46.06,28.28h0c-3.91,3.93-9.04,5.89-14.17,5.89h0c-5.11,0-10.21-1.94-14.11-5.83ZM696.65,204.39h0c-9.2-6.12-11.68-18.54-5.55-27.73h0c6.13-9.19,18.54-11.68,27.73-5.55h0c9.19,6.13,11.68,18.55,5.55,27.74h0c-3.85,5.78-10.19,8.91-16.66,8.9h0c-3.81,0-7.66-1.08-11.07-3.36ZM635.25,171.67h0c-10.21-4.21-15.07-15.9-10.86-26.12h0c4.21-10.21,15.9-15.07,26.11-10.86h0c10.21,4.21,15.08,15.9,10.87,26.12h0c-3.19,7.71-10.64,12.38-18.5,12.38h0c-2.54,0-5.12-.49-7.62-1.52ZM568.66,151.63c-10.85-2.12-17.91-12.63-15.79-23.47h0c2.12-10.84,12.63-17.91,23.47-15.78h0c10.84,2.12,17.91,12.63,15.79,23.47h0c-1.87,9.54-10.24,16.16-19.61,16.16h0c-1.27,0-2.57-.13-3.86-.38Z" style="fill:#fff;"/><line x1="500" y1="500" x2="362.33" y2="645.07" style="fill:none; stroke:#fff; stroke-linecap:round; stroke-miterlimit:10; stroke-width:50px;"/><line x1="500" y1="500" x2="584.98" y2="761.54" style="fill:none; stroke:#fff; stroke-linecap:round; stroke-miterlimit:10; stroke-width:50px;"/></g></svg>